<?xml version="1.0" standalone="no"?>
<!DOCTYPE svg PUBLIC "-//W3C//DTD SVG 20010904//EN"
 "http://www.w3.org/TR/2001/REC-SVG-20010904/DTD/svg10.dtd">
<svg version="1.0" xmlns="http://www.w3.org/2000/svg"
 width="700.000000pt" height="700.000000pt" viewBox="0 0 700.000000 700.000000"
 preserveAspectRatio="xMidYMid meet">
<metadata>
Created by potrace 1.14, written by Peter Selinger 2001-2017
</metadata>
<g transform="translate(0.000000,700.000000) scale(0.100000,-0.100000)"
fill="#000000" stroke="none">
<path d="M5517 6124 c-1 -1 -18 -5 -39 -8 -85 -13 -209 -75 -279 -138 -71 -64
-139 -182 -159 -275 l-11 -52 -136 135 c-74 74 -154 144 -176 156 -52 27 -138
28 -188 3 -18 -9 -110 -93 -204 -186 l-170 -168 -107 34 c-112 35 -300 80
-378 90 -25 3 -72 8 -105 13 -33 4 -161 7 -285 6 -234 -1 -342 -13 -556 -64
-512 -123 -999 -437 -1330 -860 -222 -283 -377 -609 -462 -970 -61 -256 -74
-642 -32 -890 5 -30 12 -70 15 -88 33 -195 121 -454 225 -662 155 -308 424
-628 702 -833 56 -42 108 -80 113 -85 56 -43 283 -164 430 -227 197 -85 468
-150 715 -172 141 -12 502 -5 530 12 3 1 28 6 55 9 138 19 352 75 497 132 746
290 1292 912 1488 1694 16 63 31 133 35 155 3 22 10 67 16 100 17 95 19 494 4
610 -22 162 -57 319 -105 465 -17 51 -29 94 -28 96 2 2 80 81 174 176 185 187
206 221 198 307 -7 69 -37 113 -178 254 l-135 135 52 11 c67 15 150 54 207
100 59 47 60 48 103 104 235 308 76 768 -298 862 -55 13 -190 27 -198 19z
m159 -233 c78 -23 166 -104 205 -188 34 -74 32 -189 -6 -267 -33 -70 -90 -127
-165 -164 -77 -38 -190 -38 -270 0 -70 33 -136 98 -169 168 -37 80 -37 192 2
271 76 156 239 229 403 180z"/>
</g>
</svg>
