<?xml version="1.0" encoding="UTF-8" standalone="no"?>
<!-- Created with Inkscape (http://www.inkscape.org/) -->

<svg
   xmlns:dc="http://purl.org/dc/elements/1.1/"
   xmlns:cc="http://creativecommons.org/ns#"
   xmlns:rdf="http://www.w3.org/1999/02/22-rdf-syntax-ns#"
   xmlns:svg="http://www.w3.org/2000/svg"
   xmlns="http://www.w3.org/2000/svg"
   xmlns:sodipodi="http://sodipodi.sourceforge.net/DTD/sodipodi-0.dtd"
   xmlns:inkscape="http://www.inkscape.org/namespaces/inkscape"
   width="32"
   height="32"
   viewBox="0 0 32 32.000001"
   id="svg4244"
   version="1.1"
   inkscape:version="0.91 r13725"
   sodipodi:docname="5.svg">
  <defs
     id="defs4246" />
  <sodipodi:namedview
     id="base"
     pagecolor="#ffffff"
     bordercolor="#666666"
     borderopacity="1.0"
     inkscape:pageopacity="0.0"
     inkscape:pageshadow="2"
     inkscape:zoom="5.6"
     inkscape:cx="4.4895674"
     inkscape:cy="-11.440632"
     inkscape:document-units="px"
     inkscape:current-layer="layer1"
     showgrid="true"
     units="px"
     inkscape:window-width="1366"
     inkscape:window-height="705"
     inkscape:window-x="-8"
     inkscape:window-y="-8"
     inkscape:window-maximized="1"
     inkscape:snap-bbox="true"
     inkscape:bbox-paths="true"
     inkscape:bbox-nodes="true"
     inkscape:snap-bbox-edge-midpoints="true"
     inkscape:snap-bbox-midpoints="true">
    <inkscape:grid
       type="xygrid"
       id="grid4252" />
  </sodipodi:namedview>
  <metadata
     id="metadata4249">
    <rdf:RDF>
      <cc:Work
         rdf:about="">
        <dc:format>image/svg+xml</dc:format>
        <dc:type
           rdf:resource="http://purl.org/dc/dcmitype/StillImage" />
        <dc:title></dc:title>
      </cc:Work>
    </rdf:RDF>
  </metadata>
  <g
     inkscape:label="Layer 1"
     inkscape:groupmode="layer"
     id="layer1"
     transform="translate(0,-1020.3622)">
    <g
       id="g5250">
      <path
         inkscape:connector-curvature="0"
         id="path3552"
         d="m 27.26504,1025.0977 c -0.980523,-0.9806 -2.585387,-0.9806 -3.565911,0 -0.980531,0.9805 -0.980531,2.5854 -7e-6,3.5659 0.980531,0.9805 2.585395,0.9805 3.565925,0 0.980517,-0.9805 0.980517,-2.5854 -7e-6,-3.5659 z m -0.707106,0.7071 c 0.598368,0.5983 0.598382,1.5533 7e-6,2.1517 -0.598382,0.5984 -1.553344,0.5983 -2.151712,0 -0.598368,-0.5984 -0.598375,-1.5533 7e-6,-2.1517 0.598382,-0.5984 1.55333,-0.5984 2.151698,0 z"
         style="color:#000000;font-style:normal;font-variant:normal;font-weight:normal;font-stretch:normal;font-size:medium;line-height:normal;font-family:sans-serif;text-indent:0;text-align:start;text-decoration:none;text-decoration-line:none;text-decoration-style:solid;text-decoration-color:#000000;letter-spacing:normal;word-spacing:normal;text-transform:none;direction:ltr;block-progression:tb;writing-mode:lr-tb;baseline-shift:baseline;text-anchor:start;white-space:normal;clip-rule:nonzero;display:inline;overflow:visible;visibility:visible;opacity:1;isolation:auto;mix-blend-mode:normal;color-interpolation:sRGB;color-interpolation-filters:linearRGB;solid-color:#000000;solid-opacity:1;fill:#d8d7dc;fill-opacity:1;fill-rule:nonzero;stroke:none;stroke-width:0.99999994;stroke-linecap:butt;stroke-linejoin:miter;stroke-miterlimit:4;stroke-dasharray:none;stroke-dashoffset:0;stroke-opacity:1;color-rendering:auto;image-rendering:auto;shape-rendering:auto;text-rendering:auto;enable-background:accumulate" />
      <path
         id="path3544"
         d="m 748.77279,712.64833 a 11.11827,11.11827 0 0 1 6.22098,12.48007 11.11827,11.11827 0 0 1 -10.86431,8.74182 11.11827,11.11827 0 0 1 -10.85962,-8.74766 11.11827,11.11827 0 0 1 6.2277,-12.47672"
         style="fill:#ff0000;fill-rule:evenodd;stroke:none;stroke-width:1px;stroke-linecap:butt;stroke-linejoin:miter;stroke-opacity:1"
         transform="matrix(0.70710678,0.70710678,-0.70710678,0.70710678,0,0)" />
      <path
         sodipodi:nodetypes="ccccc"
         inkscape:connector-curvature="0"
         id="rect3546"
         d="m 20.05796,1025.7453 6.558879,6.5589 -1.072063,1.0721 -6.558878,-6.5589 z"
         style="fill:#d8d7dc;fill-opacity:1;stroke:none" />
      <path
         inkscape:connector-curvature="0"
         id="path3548"
         d="m 25.543847,1033.3808 a 11.118269,11.118269 0 0 1 -4.425889,13.2237 11.118269,11.118269 0 0 1 -13.8636054,-1.5009 11.118269,11.118269 0 0 1 -1.4933904,-13.8644 11.118269,11.118269 0 0 1 13.2260078,-4.4187"
         style="fill:#fd0437;fill-opacity:1;fill-rule:evenodd;stroke:none;stroke-width:1px;stroke-linecap:butt;stroke-linejoin:miter;stroke-opacity:1" />
      <path
         id="rect3565"
         d="m 740.5054,709.61224 7.25412,0 c 0.55996,0 1.01076,0.45081 1.01076,1.01077 l 0,1.01072 c 0,0.55996 -0.4508,1.01076 -1.01076,1.01076 l -7.25412,0 c -0.55997,0 -1.01077,-0.4508 -1.01077,-1.01076 l 0,-1.01072 c 0,-0.55996 0.4508,-1.01077 1.01077,-1.01077 z"
         style="fill:#d8d7dc;fill-opacity:1;stroke:none;stroke-width:1;stroke-opacity:1"
         transform="matrix(0.70710678,0.70710678,-0.70710678,0.70710678,0,0)" />
      <path
         inkscape:connector-curvature="0"
         id="path4329-5"
         d="m 20.105469,1031.7422 a 0.50005,0.50005 0 0 0 -0.34375,0.1504 l -10.7089846,10.7109 a 0.50005,0.50005 0 1 0 0.7070312,0.707 L 20.46875,1032.5996 a 0.50005,0.50005 0 0 0 -0.363281,-0.8574 z"
         style="color:#000000;font-style:normal;font-variant:normal;font-weight:normal;font-stretch:normal;font-size:medium;line-height:normal;font-family:sans-serif;text-indent:0;text-align:start;text-decoration:none;text-decoration-line:none;text-decoration-style:solid;text-decoration-color:#000000;letter-spacing:normal;word-spacing:normal;text-transform:none;direction:ltr;block-progression:tb;writing-mode:lr-tb;baseline-shift:baseline;text-anchor:start;white-space:normal;clip-rule:nonzero;display:inline;overflow:visible;visibility:visible;opacity:1;isolation:auto;mix-blend-mode:normal;color-interpolation:sRGB;color-interpolation-filters:linearRGB;solid-color:#000000;solid-opacity:1;fill:#d8d7dc;fill-opacity:1;fill-rule:evenodd;stroke:none;stroke-width:1;stroke-linecap:round;stroke-linejoin:round;stroke-miterlimit:4;stroke-dasharray:none;stroke-dashoffset:0;stroke-opacity:1;color-rendering:auto;image-rendering:auto;shape-rendering:auto;text-rendering:auto;enable-background:accumulate" />
      <path
         inkscape:connector-curvature="0"
         id="path4331-3"
         d="m 18.472656,1030.9277 a 0.50005,0.50005 0 0 0 -0.484375,0.6035 l 0.398438,2.0489 a 0.50005,0.50005 0 0 0 0.396484,0.3945 l 2.048828,0.4004 a 0.50043641,0.50043641 0 1 0 0.191407,-0.9824 l -1.71875,-0.334 -0.335938,-1.7188 a 0.50005,0.50005 0 0 0 -0.496094,-0.4121 z"
         style="color:#000000;font-style:normal;font-variant:normal;font-weight:normal;font-stretch:normal;font-size:medium;line-height:normal;font-family:sans-serif;text-indent:0;text-align:start;text-decoration:none;text-decoration-line:none;text-decoration-style:solid;text-decoration-color:#000000;letter-spacing:normal;word-spacing:normal;text-transform:none;direction:ltr;block-progression:tb;writing-mode:lr-tb;baseline-shift:baseline;text-anchor:start;white-space:normal;clip-rule:nonzero;display:inline;overflow:visible;visibility:visible;opacity:1;isolation:auto;mix-blend-mode:normal;color-interpolation:sRGB;color-interpolation-filters:linearRGB;solid-color:#000000;solid-opacity:1;fill:#d8d7dc;fill-opacity:1;fill-rule:evenodd;stroke:none;stroke-width:1;stroke-linecap:round;stroke-linejoin:round;stroke-miterlimit:4;stroke-dasharray:none;stroke-dashoffset:0;stroke-opacity:1;color-rendering:auto;image-rendering:auto;shape-rendering:auto;text-rendering:auto;enable-background:accumulate" />
      <path
         inkscape:connector-curvature="0"
         id="path4333-3"
         d="M 8.5917969,1040.8164 A 0.50005,0.50005 0 0 0 8.5,1041.8086 l 1.71875,0.334 0.335938,1.7187 a 0.50005,0.50005 0 1 0 0.980468,-0.1914 l -0.398437,-2.0488 a 0.50005,0.50005 0 0 0 -0.394531,-0.3945 l -2.0507818,-0.4004 a 0.50005,0.50005 0 0 0 -0.099609,-0.01 z"
         style="color:#000000;font-style:normal;font-variant:normal;font-weight:normal;font-stretch:normal;font-size:medium;line-height:normal;font-family:sans-serif;text-indent:0;text-align:start;text-decoration:none;text-decoration-line:none;text-decoration-style:solid;text-decoration-color:#000000;letter-spacing:normal;word-spacing:normal;text-transform:none;direction:ltr;block-progression:tb;writing-mode:lr-tb;baseline-shift:baseline;text-anchor:start;white-space:normal;clip-rule:nonzero;display:inline;overflow:visible;visibility:visible;opacity:1;isolation:auto;mix-blend-mode:normal;color-interpolation:sRGB;color-interpolation-filters:linearRGB;solid-color:#000000;solid-opacity:1;fill:#d8d7dc;fill-opacity:1;fill-rule:evenodd;stroke:none;stroke-width:1;stroke-linecap:round;stroke-linejoin:round;stroke-miterlimit:4;stroke-dasharray:none;stroke-dashoffset:0;stroke-opacity:1;color-rendering:auto;image-rendering:auto;shape-rendering:auto;text-rendering:auto;enable-background:accumulate" />
      <path
         inkscape:connector-curvature="0"
         id="path4337-8"
         d="m 7.4355469,1035.1543 a 0.50005,0.50005 0 0 0 -0.109375,0.9844 l 14.6054691,3.8965 a 0.50005,0.50005 0 1 0 0.257812,-0.9649 l -14.6054686,-3.8965 a 0.50005,0.50005 0 0 0 -0.1484375,-0.02 z"
         style="color:#000000;font-style:normal;font-variant:normal;font-weight:normal;font-stretch:normal;font-size:medium;line-height:normal;font-family:sans-serif;text-indent:0;text-align:start;text-decoration:none;text-decoration-line:none;text-decoration-style:solid;text-decoration-color:#000000;letter-spacing:normal;word-spacing:normal;text-transform:none;direction:ltr;block-progression:tb;writing-mode:lr-tb;baseline-shift:baseline;text-anchor:start;white-space:normal;clip-rule:nonzero;display:inline;overflow:visible;visibility:visible;opacity:1;isolation:auto;mix-blend-mode:normal;color-interpolation:sRGB;color-interpolation-filters:linearRGB;solid-color:#000000;solid-opacity:1;fill:#d8d7dc;fill-opacity:1;fill-rule:evenodd;stroke:none;stroke-width:1;stroke-linecap:round;stroke-linejoin:round;stroke-miterlimit:4;stroke-dasharray:none;stroke-dashoffset:0;stroke-opacity:1;color-rendering:auto;image-rendering:auto;shape-rendering:auto;text-rendering:auto;enable-background:accumulate" />
      <path
         inkscape:connector-curvature="0"
         id="path4339-2"
         d="m 21.923828,1037.2207 a 0.50005,0.50005 0 0 0 -0.302734,0.127 l -1.576172,1.375 a 0.50005,0.50005 0 0 0 -0.144531,0.539 l 0.675781,1.9746 a 0.50005,0.50005 0 1 0 0.945312,-0.3222 l -0.566406,-1.6582 1.324219,-1.1543 a 0.50005,0.50005 0 0 0 -0.355469,-0.8809 z"
         style="color:#000000;font-style:normal;font-variant:normal;font-weight:normal;font-stretch:normal;font-size:medium;line-height:normal;font-family:sans-serif;text-indent:0;text-align:start;text-decoration:none;text-decoration-line:none;text-decoration-style:solid;text-decoration-color:#000000;letter-spacing:normal;word-spacing:normal;text-transform:none;direction:ltr;block-progression:tb;writing-mode:lr-tb;baseline-shift:baseline;text-anchor:start;white-space:normal;clip-rule:nonzero;display:inline;overflow:visible;visibility:visible;opacity:1;isolation:auto;mix-blend-mode:normal;color-interpolation:sRGB;color-interpolation-filters:linearRGB;solid-color:#000000;solid-opacity:1;fill:#d8d7dc;fill-opacity:1;fill-rule:evenodd;stroke:none;stroke-width:1;stroke-linecap:round;stroke-linejoin:round;stroke-miterlimit:4;stroke-dasharray:none;stroke-dashoffset:0;stroke-opacity:1;color-rendering:auto;image-rendering:auto;shape-rendering:auto;text-rendering:auto;enable-background:accumulate" />
      <path
         inkscape:connector-curvature="0"
         id="path4341-3"
         d="M 8.4472656,1033.623 A 0.50005,0.50005 0 0 0 8,1034.291 l 0.5644531,1.6563 -1.3222656,1.1562 a 0.50005,0.50005 0 1 0 0.65625,0.752 l 1.5761719,-1.375 a 0.50005,0.50005 0 0 0 0.1445312,-0.5371 l -0.6738281,-1.9766 a 0.50005,0.50005 0 0 0 -0.4980469,-0.3438 z"
         style="color:#000000;font-style:normal;font-variant:normal;font-weight:normal;font-stretch:normal;font-size:medium;line-height:normal;font-family:sans-serif;text-indent:0;text-align:start;text-decoration:none;text-decoration-line:none;text-decoration-style:solid;text-decoration-color:#000000;letter-spacing:normal;word-spacing:normal;text-transform:none;direction:ltr;block-progression:tb;writing-mode:lr-tb;baseline-shift:baseline;text-anchor:start;white-space:normal;clip-rule:nonzero;display:inline;overflow:visible;visibility:visible;opacity:1;isolation:auto;mix-blend-mode:normal;color-interpolation:sRGB;color-interpolation-filters:linearRGB;solid-color:#000000;solid-opacity:1;fill:#d8d7dc;fill-opacity:1;fill-rule:evenodd;stroke:none;stroke-width:1;stroke-linecap:round;stroke-linejoin:round;stroke-miterlimit:4;stroke-dasharray:none;stroke-dashoffset:0;stroke-opacity:1;color-rendering:auto;image-rendering:auto;shape-rendering:auto;text-rendering:auto;enable-background:accumulate" />
      <path
         inkscape:connector-curvature="0"
         id="path4345-7"
         d="m 12.824219,1029.7891 a 0.50005,0.50005 0 0 0 -0.492188,0.6347 l 3.896485,14.6074 a 0.50005,0.50005 0 1 0 0.964843,-0.2578 l -3.896484,-14.6074 a 0.50005,0.50005 0 0 0 -0.472656,-0.3769 z"
         style="color:#000000;font-style:normal;font-variant:normal;font-weight:normal;font-stretch:normal;font-size:medium;line-height:normal;font-family:sans-serif;text-indent:0;text-align:start;text-decoration:none;text-decoration-line:none;text-decoration-style:solid;text-decoration-color:#000000;letter-spacing:normal;word-spacing:normal;text-transform:none;direction:ltr;block-progression:tb;writing-mode:lr-tb;baseline-shift:baseline;text-anchor:start;white-space:normal;clip-rule:nonzero;display:inline;overflow:visible;visibility:visible;opacity:1;isolation:auto;mix-blend-mode:normal;color-interpolation:sRGB;color-interpolation-filters:linearRGB;solid-color:#000000;solid-opacity:1;fill:#d8d7dc;fill-opacity:1;fill-rule:evenodd;stroke:none;stroke-width:1;stroke-linecap:round;stroke-linejoin:round;stroke-miterlimit:4;stroke-dasharray:none;stroke-dashoffset:0;stroke-opacity:1;color-rendering:auto;image-rendering:auto;shape-rendering:auto;text-rendering:auto;enable-background:accumulate" />
      <path
         inkscape:connector-curvature="0"
         id="path4347-2"
         d="m 16.222656,1042.7168 a 0.50005,0.50005 0 0 0 -0.341797,0.1699 l -1.375,1.5762 a 0.50040059,0.50040059 0 0 0 0.753907,0.6582 l 1.154296,-1.3242 1.658204,0.5664 a 0.50030791,0.50030791 0 1 0 0.322265,-0.9473 l -1.974609,-0.6738 a 0.50005,0.50005 0 0 0 -0.197266,-0.025 z"
         style="color:#000000;font-style:normal;font-variant:normal;font-weight:normal;font-stretch:normal;font-size:medium;line-height:normal;font-family:sans-serif;text-indent:0;text-align:start;text-decoration:none;text-decoration-line:none;text-decoration-style:solid;text-decoration-color:#000000;letter-spacing:normal;word-spacing:normal;text-transform:none;direction:ltr;block-progression:tb;writing-mode:lr-tb;baseline-shift:baseline;text-anchor:start;white-space:normal;clip-rule:nonzero;display:inline;overflow:visible;visibility:visible;opacity:1;isolation:auto;mix-blend-mode:normal;color-interpolation:sRGB;color-interpolation-filters:linearRGB;solid-color:#000000;solid-opacity:1;fill:#d8d7dc;fill-opacity:1;fill-rule:evenodd;stroke:none;stroke-width:1;stroke-linecap:round;stroke-linejoin:round;stroke-miterlimit:4;stroke-dasharray:none;stroke-dashoffset:0;stroke-opacity:1;color-rendering:auto;image-rendering:auto;shape-rendering:auto;text-rendering:auto;enable-background:accumulate" />
      <path
         inkscape:connector-curvature="0"
         id="path4349-8"
         d="m 14.644531,1029.9062 a 0.50005,0.50005 0 0 0 -0.382812,0.1778 l -1.154297,1.3222 -1.658203,-0.5664 a 0.50030807,0.50030807 0 0 0 -0.322266,0.9473 l 1.974609,0.6738 a 0.50005,0.50005 0 0 0 0.53711,-0.1445 l 1.376953,-1.5762 a 0.50005,0.50005 0 0 0 -0.371094,-0.834 z"
         style="color:#000000;font-style:normal;font-variant:normal;font-weight:normal;font-stretch:normal;font-size:medium;line-height:normal;font-family:sans-serif;text-indent:0;text-align:start;text-decoration:none;text-decoration-line:none;text-decoration-style:solid;text-decoration-color:#000000;letter-spacing:normal;word-spacing:normal;text-transform:none;direction:ltr;block-progression:tb;writing-mode:lr-tb;baseline-shift:baseline;text-anchor:start;white-space:normal;clip-rule:nonzero;display:inline;overflow:visible;visibility:visible;opacity:1;isolation:auto;mix-blend-mode:normal;color-interpolation:sRGB;color-interpolation-filters:linearRGB;solid-color:#000000;solid-opacity:1;fill:#d8d7dc;fill-opacity:1;fill-rule:evenodd;stroke:none;stroke-width:1;stroke-linecap:round;stroke-linejoin:round;stroke-miterlimit:4;stroke-dasharray:none;stroke-dashoffset:0;stroke-opacity:1;color-rendering:auto;image-rendering:auto;shape-rendering:auto;text-rendering:auto;enable-background:accumulate" />
      <path
         inkscape:connector-curvature="0"
         id="path4351-0"
         d="m 19.720333,1036.0978 a 0.50009514,0.50000486 44.998869 0 0 -0.335928,-0.2091 l -2.520511,-0.39 -0.390637,-2.5232 a 0.50009514,0.50000486 44.998869 0 0 -0.88441,-0.2354 l -1.597643,1.9887 -2.380698,-0.9237 a 0.50009514,0.50000486 44.998869 0 0 -0.646636,0.6486 l 0.922868,2.3787 -1.9882353,1.5984 a 0.50009514,0.50000486 44.998869 0 0 0.2376793,0.8842 l 2.52051,0.3899 0.39256,2.5221 a 0.50009514,0.50000486 44.998869 0 0 0.882487,0.2366 l 1.597644,-1.9888 2.380698,0.9238 a 0.50009514,0.50000486 44.998869 0 0 0.646635,-0.6487 l -0.922868,-2.3786 1.988236,-1.5984 a 0.50009514,0.50000486 44.998869 0 0 0.09825,-0.6751 z m -1.60982,0.6064 -1.389602,1.1176 a 0.50009514,0.50000486 44.998869 0 0 -0.151217,0.5705 l 0.644833,1.663 -1.66362,-0.6443 a 0.50009514,0.50000486 44.998869 0 0 -0.570743,0.1517 l -1.116913,1.3908 -0.273922,-1.7619 a 0.50009514,0.50000486 44.998869 0 0 -0.417604,-0.4199 l -1.761748,-0.2722 1.389698,-1.1177 a 0.50009514,0.50000486 44.998869 0 0 0.151218,-0.5704 l -0.645918,-1.6649 1.664704,0.6462 a 0.50009514,0.50000486 44.998869 0 0 0.570743,-0.1518 l 1.11874,-1.3918 0.272096,1.763 a 0.50009514,0.50000486 44.998869 0 0 0.417603,0.4198 l 1.761652,0.2723 z"
         style="color:#000000;font-style:normal;font-variant:normal;font-weight:normal;font-stretch:normal;font-size:medium;line-height:normal;font-family:sans-serif;text-indent:0;text-align:start;text-decoration:none;text-decoration-line:none;text-decoration-style:solid;text-decoration-color:#000000;letter-spacing:normal;word-spacing:normal;text-transform:none;direction:ltr;block-progression:tb;writing-mode:lr-tb;baseline-shift:baseline;text-anchor:start;white-space:normal;clip-rule:nonzero;display:inline;overflow:visible;visibility:visible;opacity:1;isolation:auto;mix-blend-mode:normal;color-interpolation:sRGB;color-interpolation-filters:linearRGB;solid-color:#000000;solid-opacity:1;fill:#d8d7dc;fill-opacity:1;fill-rule:nonzero;stroke:none;stroke-width:0.90093249;stroke-linecap:round;stroke-linejoin:round;stroke-miterlimit:4;stroke-dasharray:none;stroke-dashoffset:0;stroke-opacity:1;color-rendering:auto;image-rendering:auto;shape-rendering:auto;text-rendering:auto;enable-background:accumulate" />
    </g>
  </g>
</svg>
